External Loads File
version=1
nRows=70
nColumns=13
Range=5.000000e-03-10 seconds
endheader
time 	forceRightX 	forceRightY 	forceRightZ 	pointRightX 	pointRightY 	pointRightZ 	forceLeftX 	forceLeftY 	forceLeftZ 	pointLeftX 	pointLeftY 	pointLeftZ 		
7.505000 -70.302498 441.515751 -0.000000 0.327287 0.286421 -0.105160 16.338402 -21.259572 -0.000000 0.052962 0.329316 -0.341754
7.510000 -60.609981 467.486103 -0.000000 0.324112 0.275582 -0.105142 18.381707 -15.904741 -0.000000 0.055975 0.339318 -0.341747
7.515000 -48.225455 492.299751 -0.000000 0.320516 0.265026 -0.105093 20.983609 -9.998988 -0.000000 0.059568 0.349279 -0.341845
7.520000 -33.285040 515.555524 -0.000000 0.316651 0.254714 -0.105419 24.136687 -3.832509 -0.000000 0.063751 0.359127 -0.341831
7.525000 -15.820348 536.860198 -0.000000 0.312084 0.244635 -0.105403 27.771740 2.263032 -0.000000 0.068400 0.368748 -0.341857
7.530000 3.563874 555.876735 -0.000000 0.307026 0.235025 -0.105273 31.767842 7.944021 -0.000000 0.073574 0.378235 -0.341909
7.535000 24.713735 572.415101 -0.000000 0.301761 0.225678 -0.105177 35.936054 12.770253 -0.000000 0.079396 0.387597 -0.341983
7.540000 46.837292 586.413238 -0.000000 0.296132 0.216730 -0.105160 39.977078 16.302540 -0.000000 0.085645 0.396823 -0.342018
7.545000 69.059327 597.955186 -0.000000 0.290083 0.208249 -0.105147 43.483096 18.167459 -0.000000 0.092302 0.405628 -0.342078
7.550000 92.014312 607.031169 -0.000000 0.283457 0.200430 -0.104785 46.033634 18.005401 -0.000000 0.099402 0.414569 -0.342100
7.555000 114.200192 613.939234 -0.000000 0.276694 0.193061 -0.104234 47.147407 15.795946 -0.000000 0.106911 0.423157 -0.342017
7.560000 134.457687 619.086205 -0.000000 0.269761 0.186199 -0.104148 46.442479 11.738338 -0.000000 0.114690 0.430874 -0.341898
7.565000 155.318332 622.069000 -0.000000 0.262299 0.179655 -0.104137 43.751168 6.011361 -0.000000 0.123017 0.438813 -0.341967
7.570000 173.461794 623.762480 -0.000000 0.254728 0.173669 -0.103933 39.004728 -0.552267 -0.000000 0.131313 0.446080 -0.341607
7.575000 190.440070 623.852942 -0.000000 0.246891 0.168015 -0.103704 32.434345 -7.339016 -0.000000 0.140138 0.452535 -0.341498
7.580000 205.213618 622.555318 -0.000000 0.238954 0.162794 -0.103404 24.432991 -13.534255 -0.000000 0.149052 0.458588 -0.341213
7.585000 218.286223 619.463321 -0.000000 0.230768 0.158080 -0.103242 15.452667 -18.467986 -0.000000 0.158272 0.464048 -0.341035
7.590000 228.705627 614.602401 -0.000000 0.222518 0.154215 -0.102922 5.966923 -21.562415 -0.000000 0.167603 0.468555 -0.340806
7.595000 236.801202 607.644586 -0.000000 0.214166 0.151064 -0.102584 -3.639121 -22.513155 -0.000000 0.177031 0.472596 -0.340705
7.600000 242.818920 598.395107 -0.000000 0.205784 0.148340 -0.102145 -13.066919 -21.268010 -0.000000 0.186760 0.475881 -0.340416
7.605000 246.132638 587.131061 -0.000000 0.197426 0.146054 -0.101604 -22.084819 -18.039398 -0.000000 0.196369 0.478443 -0.340793
7.610000 247.618112 573.587208 -0.000000 0.188948 0.144292 -0.100931 -30.616710 -13.202292 -0.000000 0.206125 0.480258 -0.340684
7.615000 247.568843 557.710250 -0.000000 0.180405 0.143154 -0.100236 -38.662729 -7.282730 -0.000000 0.216043 0.481381 -0.340854
7.620000 245.812114 539.588295 -0.000000 0.171875 0.142536 -0.099373 -46.306334 -0.931573 -0.000000 0.225908 0.481678 -0.340920
7.625000 242.978811 518.852555 -0.000000 0.163163 0.142602 -0.097811 -53.690954 5.259997 -0.000000 0.235702 0.481195 -0.340912
7.630000 237.299756 496.152087 -0.000000 0.155015 0.142973 -0.096681 -60.979878 10.536497 -0.000000 0.244987 0.480123 -0.340988
7.635000 230.517876 470.396530 -0.000000 0.146949 0.144046 -0.095830 -68.234581 14.675234 -0.000000 0.254203 0.478226 -0.341303
7.640000 222.386981 441.338376 -0.000000 0.139061 0.145742 -0.095201 -75.428654 17.521720 -0.000000 0.263272 0.475502 -0.341562
7.645000 212.704353 408.721582 -0.000000 0.131410 0.148535 -0.094678 -82.437870 19.202071 -0.000000 0.271882 0.471983 -0.341993
7.650000 201.055531 372.569815 -0.000000 0.124078 0.151882 -0.094161 -89.060394 20.013664 -0.000000 0.280140 0.467952 -0.342618
7.655000 187.415421 333.014782 -0.000000 0.116845 0.156012 -0.093705 -95.052528 20.446980 -0.000000 0.287823 0.463410 -0.343043
7.660000 171.324760 290.789964 -0.000000 0.110461 0.160826 -0.092655 -100.270131 20.904500 -0.000000 0.295108 0.458275 -0.343707
7.665000 153.096076 246.579562 -0.000000 0.104534 0.166432 -0.090414 -104.667616 21.973747 -0.000000 0.301665 0.452322 -0.344170
7.670000 133.038402 201.574335 -0.000000 0.097904 0.172447 -0.089447 -108.371778 24.225603 -0.000000 0.307553 0.446260 -0.344899
7.675000 111.294072 157.776260 -0.000000 0.091846 0.178459 -0.088906 -111.689863 28.027568 -0.000000 0.313212 0.439220 -0.345078
7.680000 88.789430 117.252062 -0.000000 0.086399 0.185648 -0.088082 -114.878632 33.963068 -0.000000 0.318363 0.431606 -0.345714
7.685000 66.296411 82.252561 -0.000000 0.081347 0.193526 -0.087534 -118.243021 42.116621 -0.000000 0.322850 0.424150 -0.346391
7.690000 45.325666 53.820087 -0.000000 0.076423 0.202109 -0.086653 -121.887053 53.151596 -0.000000 0.326660 0.415580 -0.346628
7.695000 26.637667 32.439292 -0.000000 0.072385 0.210706 -0.086068 -126.339575 66.823934 -0.000000 0.329809 0.406781 -0.346711
7.700000 11.123698 17.375461 -0.000000 0.068864 0.220164 -0.085652 -131.740576 83.836502 -0.000000 0.332447 0.397978 -0.347106
7.705000 -0.882199 7.669206 -0.000000 0.065913 0.231502 -0.085221 -137.663397 105.190331 -0.000000 0.334553 0.388459 -0.347380
7.710000 -9.515777 2.296256 -0.000000 0.063734 0.243757 -0.084851 -143.906988 130.840767 -0.000000 0.336012 0.378289 -0.347509
7.715000 -15.118136 0.083214 -0.000000 0.062288 0.256511 -0.084623 -150.036497 160.707290 -0.000000 0.336885 0.367671 -0.347696
7.720000 -18.236719 -0.106349 -0.000000 0.061685 0.269434 -0.084691 -155.907653 194.206028 -0.000000 0.337235 0.357273 -0.347710
7.725000 -19.509674 0.877673 -0.000000 0.061883 0.282359 -0.084869 -160.720985 231.124027 -0.000000 0.337066 0.346563 -0.347299
7.730000 -19.519814 2.471345 -0.000000 0.062928 0.295668 -0.085219 -163.347597 271.124988 -0.000000 0.336478 0.335532 -0.347281
7.735000 -18.718028 4.275632 -0.000000 0.064669 0.309150 -0.085806 -163.313079 313.257947 -0.000000 0.335369 0.324454 -0.347113
7.740000 -17.429034 6.059929 -0.000000 0.066849 0.322734 -0.086473 -160.320269 356.602457 -0.000000 0.333735 0.313579 -0.347558
7.745000 -15.870268 7.718933 -0.000000 0.069483 0.336411 -0.087190 -153.827205 400.573661 -0.000000 0.331681 0.302733 -0.347169
7.750000 -14.190798 9.187170 -0.000000 0.072589 0.349948 -0.087991 -143.769979 444.561246 -0.000000 0.329095 0.291809 -0.346987
7.755000 -12.490427 10.447526 -0.000000 0.076191 0.363506 -0.088758 -130.205655 488.032241 -0.000000 0.326105 0.281047 -0.346857
7.760000 -10.834218 11.517751 -0.000000 0.080159 0.376927 -0.089580 -113.239625 530.461009 -0.000000 0.322686 0.270312 -0.346732
7.765000 -9.268029 12.424952 -0.000000 0.084594 0.390091 -0.090149 -93.272773 571.223867 -0.000000 0.318814 0.259690 -0.346476
7.770000 -7.817378 13.206518 -0.000000 0.089502 0.402881 -0.091018 -71.096501 609.628688 -0.000000 0.314462 0.249453 -0.346077
7.775000 -6.464433 13.915885 -0.000000 0.094767 0.415183 -0.091763 -47.212385 645.111028 -0.000000 0.309543 0.239591 -0.345721
7.780000 -5.167825 14.591342 -0.000000 0.100306 0.426921 -0.092583 -22.250219 677.244781 -0.000000 0.304100 0.230082 -0.345506
7.785000 -3.855385 15.252203 -0.000000 0.106516 0.438023 -0.093104 3.922445 705.759088 -0.000000 0.298259 0.220773 -0.345120
7.790000 -2.507293 15.873686 -0.000000 0.112294 0.448475 -0.093871 28.420301 730.465758 -0.000000 0.292147 0.211825 -0.344805
7.795000 -1.053910 16.411409 -0.000000 0.117893 0.458194 -0.094480 50.906388 751.282270 -0.000000 0.285682 0.203348 -0.344395
7.800000 0.574968 16.781706 -0.000000 0.124308 0.467454 -0.094589 72.949310 767.858083 -0.000000 0.278962 0.195519 -0.344066
7.805000 2.351097 16.887642 -0.000000 0.131735 0.476089 -0.093993 95.219568 779.726197 -0.000000 0.271887 0.188087 -0.343623
7.810000 4.081385 16.681128 -0.000000 0.139021 0.484238 -0.093038 115.410061 786.820495 -0.000000 0.264502 0.180896 -0.343226
7.815000 5.577191 16.180424 -0.000000 0.147002 0.491609 -0.092358 134.465594 788.803085 -0.000000 0.256736 0.174507 -0.342915
7.820000 6.681408 15.479115 -0.000000 0.156038 0.498009 -0.090823 152.566099 785.392859 -0.000000 0.248880 0.168474 -0.342565
7.825000 7.371743 14.711031 -0.000000 0.165832 0.503227 -0.088922 168.912532 776.498922 -0.000000 0.240773 0.163085 -0.342328
7.830000 7.767344 13.969789 -0.000000 0.176341 0.507676 -0.087044 183.612517 761.997916 -0.000000 0.232407 0.158191 -0.342113
7.835000 7.984392 13.295161 -0.000000 0.187446 0.510812 -0.085655 195.656852 742.297328 -0.000000 0.223939 0.153985 -0.341536
7.840000 8.128497 12.654846 -0.000000 0.199461 0.512668 -0.084474 205.818956 717.740548 -0.000000 0.215281 0.150299 -0.341221
7.845000 8.213780 12.018337 -0.000000 0.212088 0.513134 -0.083934 213.394490 689.492976 -0.000000 0.206534 0.147615 -0.341152
7.850000 8.207662 11.374395 -0.000000 0.225240 0.512096 -0.083935 218.657050 658.867442 -0.000000 0.197746 0.145305 -0.340983
